<svg width="23" height="24" viewBox="0 0 23 24" fill="none" xmlns="http://www.w3.org/2000/svg">
<path fill-rule="evenodd" clip-rule="evenodd" d="M3.1865 9.49992L10.7626 1.92378L11.7055 2.86659L4.12931 10.4427L3.1865 9.49992Z" fill="#5933f2"/>
<path fill-rule="evenodd" clip-rule="evenodd" d="M5.70056 12.014L13.2767 4.43784L14.2195 5.38065L6.64337 12.9568L5.70056 12.014Z" fill="#5933f2"/>
<path fill-rule="evenodd" clip-rule="evenodd" d="M11.0432 17.3566L18.6193 9.78047L19.5621 10.7233L11.986 18.2994L11.0432 17.3566Z" fill="#5933f2"/>
<path fill-rule="evenodd" clip-rule="evenodd" d="M13.5572 19.8707L21.1334 12.2945L22.0762 13.2373L14.5001 20.8135L13.5572 19.8707Z" fill="#5933f2"/>
<path fill-rule="evenodd" clip-rule="evenodd" d="M13.5572 19.8707C10.9421 22.4858 6.71169 22.4953 4.10819 19.8918C1.5047 17.2883 1.51419 13.0578 4.12931 10.4427L3.1865 9.49992C0.0483551 12.6381 0.0369802 17.7147 3.16117 20.8389C6.28537 23.963 11.3619 23.9516 14.5001 20.8135L13.5572 19.8707Z" fill="#5933f2"/>
<path fill-rule="evenodd" clip-rule="evenodd" d="M18.6193 9.78047L19.5621 10.7233C22.0029 8.2825 22.0117 4.33402 19.5818 1.90409C17.1519 -0.525842 13.2034 -0.516999 10.7626 1.92378L11.7055 2.86659C13.6232 0.948834 16.7255 0.941875 18.6348 2.85111C20.544 4.76034 20.5371 7.86272 18.6193 9.78047Z" fill="#5933f2"/>
<path fill-rule="evenodd" clip-rule="evenodd" d="M5.70056 12.014C3.95714 13.7574 3.95111 16.5781 5.68677 18.3137C7.42243 20.0494 10.2426 20.0428 11.986 18.2994L11.0432 17.3566C9.8228 18.577 7.84875 18.5817 6.63379 17.3667C5.41883 16.1518 5.42298 14.1772 6.64337 12.9568L5.70056 12.014Z" fill="#5933f2"/>
</svg>
