<svg width="30" height="30" viewBox="0 0 30 30" fill="none" xmlns="http://www.w3.org/2000/svg">
<path d="M17 9.5C17 10.3284 16.3284 11 15.5 11C14.6716 11 14 10.3284 14 9.5C14 8.67157 14.6716 8 15.5 8C16.3284 8 17 8.67157 17 9.5Z" fill="#1E1E1E"/>
<path d="M17 15.5C17 16.3284 16.3284 17 15.5 17C14.6716 17 14 16.3284 14 15.5C14 14.6716 14.6716 14 15.5 14C16.3284 14 17 14.6716 17 15.5Z" fill="#1E1E1E"/>
<path d="M17 21.5C17 22.3284 16.3284 23 15.5 23C14.6716 23 14 22.3284 14 21.5C14 20.6716 14.6716 20 15.5 20C16.3284 20 17 20.6716 17 21.5Z" fill="#1E1E1E"/>
</svg>
