<svg width="22" height="22" viewBox="0 0 22 22" fill="none" xmlns="http://www.w3.org/2000/svg">
<path d="M11 0C14.037 0 16.7879 1.23151 18.7782 3.22186C20.7685 5.21221 22 7.96312 22 11.0002C22 14.0373 20.7685 16.7878 18.7782 18.7781C16.7879 20.7685 14.037 22 11 22C7.96297 22 5.21211 20.7685 3.2218 18.7781C1.23148 16.7878 0 14.0373 0 11.0002C0 7.96312 1.23148 5.21221 3.2218 3.22186C5.21211 1.23151 7.96297 0 11 0ZM10.1767 5.8632C10.1767 5.40901 10.5458 5.0399 11 5.0399C11.4542 5.0399 11.8233 5.40901 11.8233 5.8632V8.55095C11.8233 9.00514 11.4542 9.37425 11 9.37425C10.5458 9.37425 10.1767 9.00514 10.1767 8.55095V5.8632ZM13.3109 8.11696C12.9598 7.83121 12.9061 7.31385 13.1914 6.96236C13.4771 6.6113 13.9949 6.55759 14.346 6.84334C14.9587 7.34007 15.458 7.96914 15.7983 8.68415C16.1279 9.37639 16.3127 10.1511 16.3127 10.9667C16.3127 12.4337 15.7175 13.7623 14.7568 14.7231L14.7065 14.7695C13.7479 15.7037 12.439 16.279 11 16.279C9.53648 16.279 8.20746 15.6835 7.24539 14.721C6.28246 13.7623 5.68734 12.4337 5.68734 10.9667C5.68734 10.155 5.87168 9.38284 6.20039 8.6906C6.54113 7.97344 7.03957 7.34307 7.64887 6.8472C7.99992 6.56146 8.51769 6.61517 8.80301 6.96623C9.08875 7.31772 9.03504 7.83508 8.68398 8.12082C8.26461 8.46243 7.92086 8.89685 7.68625 9.39143C7.46066 9.86582 7.33391 10.4008 7.33391 10.9667C7.33391 11.9791 7.74512 12.8956 8.40769 13.5586C9.06855 14.2234 9.98551 14.6324 11 14.6324C11.9952 14.6324 12.8962 14.238 13.5541 13.599L13.5923 13.5586C14.2549 12.8956 14.6661 11.9791 14.6661 10.9667C14.6661 10.4016 14.5389 9.86711 14.3125 9.39143C14.0775 8.8974 13.7354 8.462 13.3109 8.11696ZM17.7354 4.26473C16.0119 2.54165 13.6301 1.47515 11 1.47515C8.36988 1.47515 5.98812 2.54165 4.26465 4.26473C2.5416 5.98824 1.47512 8.37005 1.47512 11.0002C1.47512 13.6304 2.5416 16.0118 4.26465 17.7353C5.98812 19.4583 8.36988 20.5249 11 20.5249C13.6301 20.5249 16.0119 19.4583 17.7354 17.7353C19.4584 16.0118 20.5249 13.6304 20.5249 11.0002C20.5249 8.37005 19.4584 5.98824 17.7354 4.26473Z" fill="#5933f2"/>
</svg>
