<svg width="30" height="25" viewBox="0 0 30 25" fill="none" xmlns="http://www.w3.org/2000/svg">
<path d="M7.24011 1H17.7152C17.862 1 17.9923 1.06526 18.0733 1.16596L23.8939 7.43624C23.9619 7.50918 23.9991 7.60194 23.9986 7.69771L24 21.9839C24 22.292 23.8588 22.5751 23.6343 22.78L23.6329 22.7817C23.4079 22.9866 23.0981 23.1154 22.7599 23.1154H7.24011C6.90237 23.1154 6.59163 22.9875 6.36616 22.7822L6.36474 22.7804C6.14068 22.576 6 22.2938 6 21.9839V2.13148C6 1.82117 6.13974 1.53851 6.36379 1.33365L6.36568 1.33193C6.59021 1.1275 6.9 1 7.24011 1ZM23.1114 8.11824C16.7271 7.87707 16.7474 7.36709 16.962 2.32597L16.9833 1.8108H7.24011C7.143 1.8108 7.05489 1.84667 6.99095 1.90415C6.92538 1.96469 6.88862 2.04637 6.88863 2.13148V21.9839C6.88863 22.0712 6.92842 22.1516 6.99189 22.2099C7.05632 22.2683 7.14442 22.3046 7.24011 22.3046H22.7599C22.8551 22.3046 22.9427 22.2678 23.0072 22.2095C23.0711 22.1507 23.1114 22.0708 23.1114 21.9839V8.11824ZM17.8539 2.18075L17.8468 2.35406C17.6702 6.50486 17.6469 7.06541 22.5946 7.28799L17.8539 2.18075Z" fill="#3369F3"/>
</svg>
