<svg width="30" height="25" viewBox="0 0 30 25" fill="none" xmlns="http://www.w3.org/2000/svg">
<path fill-rule="evenodd" clip-rule="evenodd" d="M18.1099 16.8969C17.3311 17.7553 16.4233 18.5255 15.4028 19.1482C15.2775 19.24 15.1074 19.2526 14.9678 19.1626C13.4621 18.1998 12.1963 17.0427 11.2026 15.7866C9.83122 14.0572 8.96647 12.1389 8.67106 10.2925C8.37028 8.41919 8.65137 6.61783 9.57878 5.15299C9.94401 4.57353 10.4113 4.04626 10.9806 3.59097C12.2894 2.54182 13.7843 1.98936 15.2721 2.00016C16.7062 2.01095 18.1206 2.54902 19.3434 3.67015C19.7731 4.06245 20.1348 4.51234 20.4302 5.00002C21.4274 6.65022 21.6423 8.75571 21.2036 10.89C20.7721 12.9973 19.6979 15.1406 18.1099 16.8915V16.8969ZM8.5332 15.4141C8.8877 15.4141 9.17594 15.7038 9.17594 16.0601C9.17594 16.4164 8.8877 16.7062 8.5332 16.7062H7.3265L5.73665 21.8655H24.2168L22.4909 16.7062H21.4937C21.1392 16.7062 20.8509 16.4164 20.8509 16.0601C20.8509 15.7038 21.1392 15.4141 21.4937 15.4141H23.4093L25.9982 23.154H4L6.38477 15.4141H8.5332ZM14.9893 5.33114C16.7581 5.33114 18.1904 6.77259 18.1904 8.54696C18.1904 10.3249 16.7563 11.7646 14.9893 11.7646C13.2204 11.7646 11.7899 10.3249 11.7899 8.54696C11.7863 6.77079 13.2204 5.33114 14.9893 5.33114Z" fill="#3369F3"/>
</svg>
