<svg width="30" height="25" viewBox="0 0 30 25" fill="none" xmlns="http://www.w3.org/2000/svg">
<path d="M3.17115 5.38376H23.9538C24.2769 5.38376 24.5655 5.51958 24.7754 5.73667C24.9848 5.95375 25.1162 6.26152 25.1162 6.58704V21.9503C25.1162 22.2851 24.9848 22.5836 24.7754 22.8009C24.758 22.8189 24.7402 22.8371 24.7142 22.8551C24.513 23.0452 24.2424 23.1536 23.9451 23.1536H3.16248C2.83917 23.1536 2.55056 23.018 2.34087 22.8009C2.13119 22.5839 2 22.2763 2 21.9506V6.58726C2 6.25254 2.13119 5.95397 2.34087 5.73688C2.55056 5.5198 2.84784 5.38398 3.16248 5.38398L3.17115 5.38376ZM7.97065 9.55504C8.89192 9.55504 9.63841 10.3279 9.63841 11.2816C9.63841 12.2354 8.89192 13.0085 7.97065 13.0085C7.04939 13.0085 6.3029 12.2354 6.3029 11.2816C6.30269 10.3281 7.04939 9.55504 7.97065 9.55504ZM14.9893 16.9651L18.3252 10.994L21.869 20.2739L5.33001 20.2737V19.1228L6.72016 19.0511L8.10967 15.5259L8.80411 18.0441H10.8893L12.6957 13.224L14.9893 16.9651ZM6.63192 3.42934C6.24746 3.42934 5.9415 3.10383 5.9415 2.71456C5.9415 2.31654 6.25614 2 6.63192 2H27.3098C27.694 2 28 2.32574 28 2.71478V17.8067C28 18.2049 27.6856 18.5217 27.3098 18.5217C26.9251 18.5217 26.6192 18.1959 26.6192 17.8067V3.43854H6.63192V3.42934ZM23.7352 6.81355H3.38951V21.7153H23.735L23.7352 6.81355Z" fill="#5933f2"/>
</svg>
