<svg width="22" height="22" viewBox="0 0 22 22" fill="none" xmlns="http://www.w3.org/2000/svg">
<path d="M11 0C14.0375 0 16.7875 1.23127 18.7781 3.22188C20.7687 5.21254 22 7.96254 22 11C22 14.0375 20.7687 16.7875 18.7781 18.7781C16.7875 20.7687 14.0375 22 11 22C7.96254 22 5.21254 20.7687 3.22188 18.7781C1.23127 16.7875 0 14.0375 0 11C0 7.96254 1.23127 5.21254 3.22188 3.22188C5.21254 1.23127 7.96254 0 11 0ZM8.87859 13.6028C8.83596 13.5476 8.99005 13.1681 9.02653 13.1067C8.60879 12.735 8.2787 12.36 8.20836 11.5882L8.16355 11.5891C8.06008 11.5878 7.96035 11.564 7.86693 11.5107C7.71736 11.4257 7.61213 11.2796 7.5411 11.1149C7.39071 10.7693 6.89524 9.62225 7.65011 9.71291C7.22803 8.92465 8.18331 7.57805 6.53572 7.08C7.88752 5.36791 10.7397 2.72809 12.8299 5.37612C15.1178 5.59784 15.8314 8.31677 14.2908 9.8059C14.3811 9.80916 14.4662 9.82996 14.5414 9.87027C14.8278 10.0237 14.8372 10.3566 14.762 10.6359C14.6875 10.8692 14.5929 11.0271 14.5037 11.2545C14.3953 11.5616 14.2367 11.6188 13.9303 11.5857C13.9147 12.345 13.5639 12.7177 13.0916 13.1637L13.2208 13.6015C12.5876 14.9447 9.95706 14.9987 8.87859 13.6028ZM3.38387 16.9393C3.90277 14.725 5.34566 15.5043 8.12496 13.7653C9.11247 15.8258 13.1259 15.9755 13.9489 13.7653C16.3273 15.2857 18.2014 14.6644 18.6737 16.865C19.9183 15.239 20.6578 13.2059 20.6578 11C20.6578 8.33302 19.5768 5.91852 17.8292 4.1708C16.0815 2.42318 13.667 1.34217 11 1.34217C8.33302 1.34217 5.91852 2.42318 4.1708 4.1708C2.42318 5.91852 1.34217 8.33302 1.34217 11C1.34217 13.2397 2.10461 15.3011 3.38387 16.9393Z" fill="#5933f2"/>
</svg>
