<svg width="25" height="25" viewBox="0 0 25 25" fill="none" xmlns="http://www.w3.org/2000/svg">
<path d="M10.9824 5C7.67504 5 5 7.61372 5 10.8453C5 14.0768 7.67504 16.6905 10.9824 16.6905C12.1632 16.6905 13.256 16.3521 14.1826 15.7772L18.5044 20L20 18.5387L15.7331 14.3804C16.5002 13.3972 16.9648 12.179 16.9648 10.8453C16.9648 7.61372 14.2898 5 10.9824 5ZM10.9824 6.37536C13.5159 6.37536 15.5572 8.3699 15.5572 10.8453C15.5572 13.3206 13.5159 15.3152 10.9824 15.3152C8.44896 15.3152 6.40762 13.3206 6.40762 10.8453C6.40762 8.3699 8.44896 6.37536 10.9824 6.37536Z" fill="black"/>
</svg>
