<svg width="21" height="16" viewBox="0 0 21 16" fill="none" xmlns="http://www.w3.org/2000/svg">
<path d="M15.1738 7.40095C15.3858 7.39079 15.5932 7.4652 15.7502 7.60783C15.828 7.67845 15.8911 7.7637 15.936 7.8587C15.9808 7.9537 16.0064 8.05659 16.0115 8.1615C16.0165 8.2664 16.0008 8.37128 15.9653 8.47012C15.9297 8.56897 15.8751 8.65985 15.8044 8.73759L11.8044 13.1376C11.7338 13.2153 11.6485 13.2784 11.5534 13.3232C11.4583 13.368 11.3554 13.3936 11.2504 13.3986C11.1455 13.4037 11.0405 13.388 10.9416 13.3525C10.8427 13.317 10.7518 13.2623 10.674 13.1917C10.5169 13.0491 10.4229 12.8499 10.4128 12.6381C10.4026 12.4262 10.4771 12.219 10.6198 12.062L14.6198 7.66196C14.7626 7.50499 14.9618 7.4111 15.1738 7.40095Z" fill="white"/>
<path d="M15.2245 7.40002C15.4367 7.40002 15.6403 7.48428 15.7903 7.63426C15.9404 7.78425 16.0247 7.98767 16.0247 8.19977C16.0247 8.41188 15.9404 8.6153 15.7903 8.76528C15.6403 8.91527 15.4367 8.99953 15.2245 8.99953H4.80024C4.588 8.99953 4.38446 8.91527 4.23439 8.76528C4.08431 8.6153 4 8.41188 4 8.19977C4 7.98767 4.08431 7.78425 4.23439 7.63426C4.38446 7.48428 4.588 7.40002 4.80024 7.40002H15.2245Z" fill="white"/>
<path d="M11.2504 3.00092C11.3554 3.00594 11.4583 3.03158 11.5534 3.07637C11.6485 3.12116 11.7338 3.18423 11.8044 3.26196L15.8044 7.66196C15.8751 7.7397 15.9297 7.83058 15.9653 7.92943C16.0008 8.02827 16.0165 8.13315 16.0115 8.23805C16.0064 8.34296 15.9808 8.44585 15.936 8.54085C15.8911 8.63585 15.828 8.7211 15.7502 8.79172C15.5932 8.93435 15.3858 9.00878 15.1738 8.99863C14.9618 8.98847 14.7626 8.89458 14.6198 8.73759L10.6198 4.33759C10.5491 4.25986 10.4945 4.16897 10.459 4.07012C10.4234 3.97128 10.4077 3.86641 10.4128 3.7615C10.4178 3.65659 10.4435 3.5537 10.4883 3.4587C10.5331 3.3637 10.5962 3.27846 10.674 3.20783C10.7518 3.1372 10.8427 3.08258 10.9416 3.04708C11.0405 3.01158 11.1454 2.99589 11.2504 3.00092Z" fill="white"/>
</svg>
