<svg width="42" height="42" viewBox="0 0 42 42" fill="none" xmlns="http://www.w3.org/2000/svg">
<g clip-path="url(#clip0_22004_1712)">
<path d="M9.3934 23.4166C9.03492 23.0638 9.02016 22.4757 9.36223 22.1043C9.44297 22.0162 9.54002 21.9453 9.64772 21.8959C9.75543 21.8465 9.87165 21.8194 9.98964 21.8164C10.1076 21.8133 10.225 21.8343 10.335 21.8781C10.445 21.9219 10.5454 21.9877 10.6304 22.0716L20.0919 31.4254V0.93001C20.0919 0.415858 20.498 0 21 0C21.5012 0 21.9073 0.415858 21.9073 0.93001V31.3776L31.016 22.0825C31.3687 21.7238 31.9372 21.7288 32.2842 22.0934C32.6312 22.4589 32.6263 23.0469 32.2736 23.4057L21.7145 34.1802C21.6299 34.2916 21.5215 34.3816 21.3976 34.4435C21.2738 34.5054 21.1378 34.5375 21 34.5372C20.717 34.5372 20.4652 34.4053 20.2978 34.1978L9.3934 23.4166ZM40.1838 32.7175C40.1838 32.2042 40.5907 31.7875 41.0919 31.7875C41.5931 31.7875 42 32.2042 42 32.7175V41.07C42 41.5841 41.5931 42 41.0919 42H0.908086C0.406055 42 0 41.5841 0 41.07V32.7175C0 32.2042 0.406055 31.7875 0.908086 31.7875C1.4093 31.7875 1.81617 32.2042 1.81617 32.7175V40.1408H40.1838V32.7175Z" fill="#5551FF"/>
</g>
<defs>
<clipPath id="clip0_22004_1712">
<rect width="42" height="42" fill="white"/>
</clipPath>
</defs>
</svg>
